Coordinates
version=1
nRows=11
nColumns=63
inDegrees=yes

Units are S.I. units (second, meters, Newtons, ...)
If the header above contains a line with 'inDegrees', this indicates whether rotational values are in degrees (yes) or radians (no).

endheader
time	pelvis_tilt	pelvis_list	pelvis_rotation	pelvis_tx	pelvis_ty	pelvis_tz	hip_flexion_r	hip_adduction_r	hip_rotation_r	knee_angle_r	knee_angle_r_beta	ankle_angle_r	subtalar_angle_r	mtp_angle_r	hip_flexion_l	hip_adduction_l	hip_rotation_l	knee_angle_l	knee_angle_l_beta	ankle_angle_l	subtalar_angle_l	mtp_angle_l	L5_S1_Flex_Ext	L5_S1_Lat_Bending	L5_S1_axial_rotation	L4_L5_Flex_Ext	L4_L5_Lat_Bending	L4_L5_axial_rotation	L3_L4_Flex_Ext	L3_L4_Lat_Bending	L3_L4_axial_rotation	L2_L3_Flex_Ext	L2_L3_Lat_Bending	L2_L3_axial_rotation	L1_L2_Flex_Ext	L1_L2_Lat_Bending	L1_L2_axial_rotation	L1_T12_Flex_Ext	L1_T12_Lat_Bending	L1_T12_axial_rotation	Abs_r3	Abs_r2	Abs_r1	Abs_t1	Abs_t2	neck_flexion	neck_bending	neck_rotation	arm_flex_r	arm_add_r	arm_rot_r	elbow_flex_r	pro_sup_r	wrist_flex_r	wrist_dev_r	arm_flex_l	arm_add_l	arm_rot_l	elbow_flex_l	pro_sup_l	wrist_flex_l	wrist_dev_l
2.016667	2.993459	-0.585752	96.331153	0.227691	1.045735	0.400921	-2.540600	3.418427	3.713138	2.051592	0.035807	23.992128	-11.985162	0.000000	-2.762882	-3.846624	11.198509	1.041779	0.018182	22.043343	-6.535388	0.000000	-0.116606	0.535046	-1.151233	-0.216550	0.711612	-1.223185	-0.191573	1.300911	-1.223185	-0.133270	1.300911	-1.007329	-0.108281	1.091066	-0.935377	-0.066629	0.828787	-0.863425	-0.832909	6.052550	-6.402814	0.000000	0.000000	17.613228	-0.503297	-4.256627	118.807196	-19.462839	-321.371544	64.941566	82.239384	-9.157665	8.365005	68.129371	-66.104676	8.148240	126.924617	88.241875	-19.138071	-0.104307
2.033333	2.883181	-0.742728	96.331345	0.228664	1.045291	0.402979	-2.360082	3.314630	4.113744	1.879415	0.032802	23.835537	-12.423229	0.000000	-2.414030	-3.755596	10.840163	1.108446	0.019346	22.357710	-6.045556	0.000000	-0.123365	0.502221	-1.102441	-0.229101	0.667954	-1.171344	-0.202677	1.221100	-1.171344	-0.140994	1.221100	-0.964636	-0.114557	1.024129	-0.895733	-0.070491	0.777940	-0.826831	-0.881185	5.681223	-6.131447	0.000000	0.000000	17.640638	-0.080023	-4.228045	118.775912	-20.054528	-321.347634	65.944970	81.644595	-9.125367	8.421025	69.202358	-65.962465	9.080600	125.742010	88.258871	-20.101528	-0.674243
2.050000	2.734828	-0.905563	96.338686	0.229775	1.044801	0.404735	-2.197801	3.181182	4.455069	1.721977	0.030054	23.739740	-12.763131	0.000000	-2.082389	-3.638619	10.522954	1.171274	0.020443	22.684289	-5.563463	0.000000	-0.125256	0.462655	-1.071495	-0.232613	0.615331	-1.138463	-0.205783	1.124899	-1.138463	-0.143155	1.124899	-0.937558	-0.116313	0.943445	-0.870590	-0.071571	0.716652	-0.803621	-0.894691	5.233642	-5.959333	0.000000	0.000000	17.657963	0.468545	-4.223978	118.651238	-20.515645	-321.340649	66.861189	81.222992	-9.267213	8.348198	70.340575	-66.062684	9.871063	124.823264	88.287837	-20.999265	-0.817284
2.066667	2.576448	-1.091908	96.334664	0.230980	1.044276	0.406165	-2.023143	3.038847	4.764535	1.588563	0.027726	23.704175	-13.022566	0.000000	-1.756093	-3.513292	10.347680	1.222929	0.021344	22.954537	-5.262975	0.000000	-0.118804	0.423294	-1.062727	-0.220631	0.562981	-1.129148	-0.195183	1.029197	-1.129148	-0.135781	1.029197	-0.929886	-0.110321	0.863181	-0.863466	-0.067885	0.655683	-0.797045	-0.848604	4.788388	-5.910570	0.000000	0.000000	17.618415	0.992780	-4.045250	118.411070	-20.796441	-321.455396	67.675593	81.219141	-9.619016	8.180669	71.068103	-66.446757	10.113529	124.234402	88.329097	-21.737915	-0.605489
2.083333	2.403254	-1.293715	96.297857	0.232331	1.043740	0.407314	-1.830896	2.885369	5.003239	1.489573	0.025998	23.746681	-13.139608	0.000000	-1.450893	-3.374983	10.300600	1.252527	0.021861	23.129421	-5.157237	0.000000	-0.105984	0.381059	-1.061984	-0.196823	0.506808	-1.128358	-0.174121	0.926507	-1.128358	-0.121129	0.926507	-0.929236	-0.098417	0.777055	-0.862862	-0.060559	0.590260	-0.796488	-0.757032	4.310615	-5.906437	0.000000	0.000000	17.543292	1.504055	-3.884291	118.017533	-21.093250	-321.814064	68.566858	81.220869	-10.074193	8.024176	71.681167	-67.013695	10.240606	123.889054	88.379819	-22.369336	-0.193305
2.100000	2.228755	-1.511381	96.221103	0.233811	1.043213	0.408260	-1.601859	2.733280	5.161997	1.438608	0.025108	23.863513	-13.117438	0.000000	-1.151387	-3.235789	10.258310	1.281010	0.022358	23.227864	-5.094947	0.000000	-0.086504	0.338165	-1.060406	-0.160647	0.449759	-1.126681	-0.142118	0.822213	-1.126681	-0.098866	0.822213	-0.927855	-0.080328	0.689585	-0.861580	-0.049429	0.523817	-0.795304	-0.617893	3.825385	-5.897658	0.000000	0.000000	17.443231	1.941295	-3.747831	117.459447	-21.497482	-322.495079	69.638415	81.028732	-10.611715	7.964119	72.259756	-67.644862	10.448780	123.684925	88.437807	-22.870718	0.298216
2.116667	2.095433	-1.714017	96.077677	0.235329	1.042755	0.409080	-1.348614	2.626922	5.291022	1.452337	0.025348	24.020144	-13.021894	0.000000	-0.893270	-3.122367	10.375375	1.295535	0.022611	23.205505	-5.351058	0.000000	-0.063810	0.302025	-1.037539	-0.118502	0.401693	-1.102385	-0.104834	0.734343	-1.102385	-0.072929	0.734343	-0.907846	-0.059254	0.615889	-0.843000	-0.036461	0.467836	-0.778154	-0.455791	3.416563	-5.770479	0.000000	0.000000	17.299071	2.214694	-3.626505	116.797414	-22.124402	-323.411436	70.938985	80.535688	-11.170890	7.943756	72.870688	-68.106748	10.892815	123.475883	88.498797	-23.151917	0.793187
2.133333	1.996968	-1.893183	95.868196	0.236890	1.042413	0.409899	-1.058311	2.562343	5.438141	1.552697	0.027100	24.193936	-12.942595	0.000000	-0.650675	-3.046933	10.318372	1.355841	0.023664	23.145143	-5.463402	0.000000	-0.038888	0.269767	-0.979346	-0.072219	0.358790	-1.040555	-0.063889	0.655911	-1.040555	-0.044445	0.655911	-0.856927	-0.036111	0.550108	-0.795718	-0.022221	0.417869	-0.734509	-0.277773	3.051656	-5.446827	0.000000	0.000000	17.042575	2.372052	-3.681060	116.021958	-23.113169	-324.435609	72.544625	79.772079	-11.817691	7.904499	73.790268	-68.209538	11.917437	123.118057	88.565011	-23.204687	1.314062
2.150000	1.956251	-2.049348	95.595098	0.238384	1.042227	0.410809	-0.713822	2.556821	5.516183	1.752077	0.030580	24.407897	-12.765983	0.000000	-0.408213	-3.028326	10.051366	1.479636	0.025825	23.071266	-5.386957	0.000000	-0.012141	0.246562	-0.887011	-0.022547	0.327927	-0.942449	-0.019946	0.599490	-0.942449	-0.013876	0.599490	-0.776134	-0.011274	0.502789	-0.720696	-0.006937	0.381924	-0.665258	-0.086721	2.789156	-4.933288	0.000000	0.000000	16.625296	2.396016	-3.812913	115.144424	-24.411731	-325.399976	74.394284	78.951981	-12.495767	7.738464	74.865746	-67.863340	13.330503	122.590949	88.641582	-22.903647	2.044045
2.166667	1.990336	-2.174748	95.191804	0.239841	1.042246	0.411898	-0.299783	2.629780	5.654558	2.067511	0.036085	24.640413	-12.574511	0.000000	-0.175000	-3.086786	9.500973	1.671961	0.029181	23.003677	-5.126747	0.000000	0.012550	0.234486	-0.739832	0.023306	0.311867	-0.786071	0.020618	0.570130	-0.786071	0.014343	0.570130	-0.647353	0.011654	0.478165	-0.601113	0.007171	0.363219	-0.554874	0.089642	2.652557	-4.114722	0.000000	0.000000	16.000952	2.278944	-4.110822	114.174588	-26.075017	-326.026841	76.515952	78.363500	-13.200087	7.459359	76.149663	-66.956258	15.215821	121.789434	88.717929	-22.296727	2.585221
2.183333	2.106558	-2.292961	94.743729	0.241160	1.042454	0.413218	0.214198	2.783092	5.840300	2.495459	0.043554	24.868158	-12.476816	0.000000	0.111886	-3.227098	8.724996	1.974662	0.034464	22.978230	-4.671519	0.000000	0.035644	0.234309	-0.560739	0.066195	0.311632	-0.595785	0.058560	0.569700	-0.595785	0.040738	0.569700	-0.490647	0.033099	0.477804	-0.455601	0.020367	0.362945	-0.420554	0.254603	2.650555	-3.118664	0.000000	0.000000	15.169145	2.072873	-4.511998	113.107593	-27.996905	-326.148865	78.901521	78.007991	-13.853690	7.203844	77.511561	-65.546042	17.427277	120.828468	88.776355	-21.539965	3.082023
